<?xml version="1.0" encoding="UTF-8"?>
<!DOCTYPE svg PUBLIC "-//W3C//DTD SVG 1.1//EN" "http://www.w3.org/Graphics/SVG/1.1/DTD/svg11.dtd">
<svg version="1.1" xmlns="http://www.w3.org/2000/svg" xmlns:xlink="http://www.w3.org/1999/xlink" x="0" y="0" width="100" height="100" viewBox="0, 0, 100, 100">
  <g id="Layer_1">
    <path d="M20,0 L80,0 C91.046,0 100,8.954 100,20 L100,80 C100,91.046 91.046,100 80,100 L20,100 C8.954,100 0,91.046 0,80 L0,20 C0,8.954 8.954,0 20,0 z" fill="black"/>
    <path d="M50,13.15 C29.648,13.15 13.15,29.648 13.15,50 C13.15,70.352 29.648,86.85 50,86.85 C70.352,86.85 86.85,70.352 86.85,50 C86.85,29.648 70.352,13.15 50,13.15 z M71.884,71.884 C69.039,74.728 65.729,76.96 62.045,78.519 C61.108,78.914 60.158,79.263 59.194,79.562 L59.194,74.039 C59.194,71.136 58.199,69.001 56.207,67.634 C57.455,67.514 58.6,67.346 59.644,67.13 C60.688,66.914 61.791,66.602 62.955,66.194 C64.118,65.785 65.162,65.3 66.085,64.736 C67.009,64.172 67.897,63.44 68.748,62.541 C69.6,61.642 70.314,60.622 70.889,59.482 C71.465,58.343 71.921,56.975 72.257,55.38 C72.592,53.785 72.761,52.028 72.761,50.108 C72.761,46.389 71.549,43.223 69.126,40.608 C70.229,37.729 70.11,34.598 68.766,31.216 L67.866,31.108 C67.243,31.036 66.121,31.3 64.502,31.9 C62.882,32.5 61.065,33.483 59.05,34.851 C56.195,34.059 53.232,33.663 50.161,33.663 C47.066,33.663 44.115,34.059 41.308,34.851 C40.037,33.987 38.831,33.274 37.691,32.71 C36.552,32.146 35.641,31.762 34.956,31.558 C34.273,31.354 33.637,31.228 33.049,31.179 C32.461,31.131 32.083,31.12 31.916,31.143 C31.748,31.167 31.628,31.191 31.556,31.216 C30.212,34.622 30.093,37.754 31.197,40.608 C28.774,43.223 27.562,46.389 27.562,50.108 C27.562,52.028 27.73,53.785 28.066,55.38 C28.402,56.975 28.858,58.343 29.433,59.482 C30.008,60.622 30.723,61.642 31.574,62.541 C32.426,63.44 33.314,64.172 34.237,64.736 C35.161,65.301 36.205,65.786 37.368,66.194 C38.531,66.602 39.635,66.913 40.678,67.13 C41.722,67.346 42.868,67.514 44.115,67.634 C42.148,68.978 41.164,71.113 41.164,74.039 L41.164,79.67 C40.078,79.346 39.007,78.964 37.955,78.519 C34.27,76.96 30.96,74.728 28.116,71.884 C25.271,69.039 23.039,65.729 21.48,62.045 C19.869,58.233 19.051,54.181 19.051,50 C19.051,45.819 19.869,41.767 21.481,37.955 C23.04,34.271 25.272,30.961 28.116,28.116 C30.961,25.272 34.271,23.04 37.955,21.481 C41.767,19.869 45.819,19.051 50,19.051 C54.181,19.051 58.233,19.869 62.045,21.481 C65.73,23.04 69.039,25.272 71.884,28.116 C74.728,30.961 76.96,34.271 78.519,37.955 C80.131,41.767 80.948,45.819 80.948,50 C80.948,54.181 80.131,58.233 78.518,62.045 C76.959,65.729 74.727,69.039 71.884,71.884 L71.884,71.884 z" fill="#F7F7F7"/>
  </g>
</svg>
