<?xml version="1.0" encoding="UTF-8" standalone="no"?><!DOCTYPE svg PUBLIC "-//W3C//DTD SVG 1.1//EN" "http://www.w3.org/Graphics/SVG/1.1/DTD/svg11.dtd"><svg width="100" height="100" viewBox="0 0 100 100" version="1.1" xmlns="http://www.w3.org/2000/svg" xmlns:xlink="http://www.w3.org/1999/xlink" xml:space="preserve" xmlns:serif="http://www.serif.com/" style="fill-rule:evenodd;clip-rule:evenodd;stroke-linejoin:round;stroke-miterlimit:1.41421;"><g id="Layer_1"><path d="M20,0l60,0c11.046,0 20,8.954 20,20l0,60c0,11.046 -8.954,20 -20,20l-60,0c-11.046,0 -20,-8.954 -20,-20l0,-60c0,-11.046 8.954,-20 20,-20Z" style="fill:#f50;fill-rule:nonzero;"/><g id="Layer1"><g><circle cx="31.631" cy="70.363" r="10.5" style="fill:#fff;"/><path d="M83.057,83.185c1.046,-4.194 1.574,-8.5 1.574,-12.822c0,-29.251 -23.748,-53 -53,-53c-4.941,0 -9.858,0.691 -14.608,2.053l3.077,10.732c3.749,-1.076 7.631,-1.621 11.531,-1.621c23.09,0 41.837,18.746 41.837,41.836c0,3.412 -0.418,6.811 -1.243,10.121l10.832,2.701Z" style="fill:#fff;"/><path d="M61.71,77.863c0.612,-2.453 0.921,-4.972 0.921,-7.5c0,-17.109 -13.89,-31 -31,-31c-2.89,0 -5.766,0.405 -8.544,1.201l2.707,9.441c1.898,-0.545 3.863,-0.821 5.837,-0.821c11.689,0 21.179,9.49 21.179,21.179c0,1.727 -0.211,3.448 -0.629,5.124l9.529,2.376Z" style="fill:#fff;"/></g></g></g></svg>
