<?xml version="1.0" encoding="UTF-8" standalone="no"?><!DOCTYPE svg PUBLIC "-//W3C//DTD SVG 1.1//EN" "http://www.w3.org/Graphics/SVG/1.1/DTD/svg11.dtd"><svg width="100" height="100" viewBox="0 0 100 100" version="1.1" xmlns="http://www.w3.org/2000/svg" xmlns:xlink="http://www.w3.org/1999/xlink" xml:space="preserve" xmlns:serif="http://www.serif.com/" style="fill-rule:evenodd;clip-rule:evenodd;stroke-linecap:round;stroke-linejoin:round;stroke-miterlimit:1.41421;"><g id="Darker-Icon" serif:id="Darker Icon"><clipPath id="_clip1"><path d="M99.854,68.6c0,1.195 0,2.387 -0.009,3.58c-0.007,1.005 -0.018,2.011 -0.043,3.014c-0.028,2.198 -0.222,4.392 -0.579,6.561c-0.37,2.172 -1.063,4.274 -2.056,6.239c-2.011,3.949 -5.223,7.161 -9.171,9.172c-1.965,0.991 -4.067,1.684 -6.236,2.054c-2.171,0.359 -4.365,0.552 -6.563,0.578c-1.004,0.026 -2.009,0.041 -3.014,0.046c-1.195,0.007 -2.387,0.007 -3.579,0.007l-37.403,0c-1.192,0 -2.385,0 -3.579,-0.007c-1.005,-0.004 -2.01,-0.019 -3.014,-0.044c-2.2,-0.027 -4.394,-0.221 -6.564,-0.58c-2.169,-0.368 -4.272,-1.064 -6.235,-2.054c-3.948,-2.011 -7.159,-5.222 -9.171,-9.169c-0.992,-1.967 -1.686,-4.071 -2.057,-6.242c-0.357,-2.169 -0.55,-4.361 -0.578,-6.559c-0.026,-1.005 -0.039,-2.011 -0.043,-3.016c-0.009,-1.195 -0.009,-2.385 -0.009,-3.58l0,-37.398c0,-1.194 0,-2.389 0.009,-3.583c0.004,-1.004 0.017,-2.009 0.043,-3.013c0.028,-2.197 0.221,-4.39 0.578,-6.558c0.371,-2.172 1.064,-4.275 2.057,-6.242c2.011,-3.949 5.223,-7.16 9.171,-9.172c1.964,-0.99 4.065,-1.683 6.233,-2.054c2.172,-0.356 4.366,-0.55 6.563,-0.578c1.006,-0.026 2.011,-0.039 3.015,-0.043c1.194,-0.007 2.389,-0.007 3.579,-0.007l37.403,0c1.194,0 2.389,0 3.581,0.007c1.005,0.003 2.01,0.018 3.014,0.043c2.198,0.028 4.392,0.222 6.561,0.578c2.172,0.371 4.272,1.064 6.238,2.054c3.949,2.011 7.162,5.223 9.173,9.172c0.992,1.966 1.685,4.069 2.054,6.239c0.357,2.17 0.551,4.363 0.579,6.561c0.025,1.006 0.039,2.011 0.043,3.015c0.009,1.194 0.009,2.387 0.009,3.579l0,37.4Z"/></clipPath><g clip-path="url(#_clip1)"><rect x="0" y="0.098" width="100" height="99.801" style="fill:url(#_Linear2);"/><g id="Glyph"><path d="M91.111,48.615l-41.116,27.701l-41.232,-27.676l2.487,-8.709l-0.053,-0.091l8.541,-3.014l5.188,-7.464l9.056,-0.116l7.302,-5.363l0.036,-0.049l8.614,2.798l0.007,0.025l8.614,-2.798l0.035,0l7.262,5.412l9.097,0.116l-0.008,0.032l5.143,7.455l8.593,2.99l-0.051,0.048l2.485,8.703Z" style="fill:#fffcef;"/><path d="M50.005,76.291l38.682,-36.452l2.55,8.776l-41.232,27.676Z" style="fill:#f2ecd3;"/><path d="M50.005,76.291l24.954,-46.929l5.25,7.512l-30.204,39.417Z" style="fill:#f2ecd3;"/><path d="M50.005,76.291l8.632,-52.432l7.34,5.412l-15.972,47.02Z" style="fill:#f2ecd3;"/><path d="M50.005,76.291l-8.711,-52.432l8.657,2.773l0.054,49.659Z" style="fill:#f2ecd3;"/><path d="M50.005,76.291l-25.061,-46.872l9.164,-0.173l15.897,47.045Z" style="fill:#f2ecd3;"/><path d="M50.005,76.291l-38.745,-36.385l8.604,-3.08l30.141,39.465Z" style="fill:#f2ecd3;"/><path d="M50.005,76.291l-38.745,-36.385l-2.487,8.709l41.232,27.676Z" style="fill:#fffcef;"/><path d="M50.005,76.291l-25.061,-46.872l-5.08,7.407l30.141,39.465Z" style="fill:#fffcef;"/><path d="M50.005,76.291l-8.711,-52.432l-7.186,5.387l15.897,47.045Z" style="fill:#fffcef;"/><path d="M50.005,76.291l8.632,-52.432l-8.686,2.773l0.054,49.659Z" style="fill:#fffcef;"/><path d="M50.005,76.291l24.953,-46.929l-8.98,-0.091l-15.973,47.02Z" style="fill:#fffcef;"/><path d="M50.005,76.291l38.682,-36.451l-8.478,-2.966l-30.204,39.417Z" style="fill:#fffcef;"/><path d="M50.008,79.521l-0.007,0l-41.237,-30.881l41.241,27.651l41.231,-27.676l-41.228,30.906Z"/><path d="M50.005,76.291l-19.529,-13.094c4.22,-6.282 11.392,-10.416 19.529,-10.416c8.133,0 15.301,4.13 19.522,10.406l-19.522,13.104Z" style="stroke:#000;stroke-width:0.06px;"/></g></g></g><defs><linearGradient id="_Linear2" x1="0" y1="0" x2="1" y2="0" gradientUnits="userSpaceOnUse" gradientTransform="matrix(6.11108e-15,-99.8015,99.8015,6.11108e-15,49.9512,99.899)"><stop offset="0" style="stop-color:#db294d;stop-opacity:1"/><stop offset="1" style="stop-color:#f73155;stop-opacity:1"/></linearGradient></defs></svg>
