<?xml version="1.0" encoding="UTF-8" standalone="no"?>
<!DOCTYPE svg PUBLIC "-//W3C//DTD SVG 1.1//EN" "http://www.w3.org/Graphics/SVG/1.1/DTD/svg11.dtd">
<svg width="100%" height="100%" viewBox="0 0 100 100" version="1.1" xmlns="http://www.w3.org/2000/svg" xmlns:xlink="http://www.w3.org/1999/xlink" xml:space="preserve" xmlns:serif="http://www.serif.com/" style="fill-rule:evenodd;clip-rule:evenodd;stroke-linejoin:round;stroke-miterlimit:1.41421;">
    <g id="Icon">
        <clipPath id="_clip1">
            <path d="M20,0L80,0C91.046,0 100,8.954 100,20L100,80C100,91.046 91.046,100 80,100L20,100C8.954,100 0,91.046 0,80L0,20C0,8.954 8.954,0 20,0Z"/>
        </clipPath>
        <g clip-path="url(#_clip1)">
            <rect id="Background" x="0" y="0" width="100" height="100" style="fill:rgb(255,55,91);stroke:rgb(255,55,90);stroke-width:0.1px;"/>
            <path id="Fan-Background" serif:id="Fan Background" d="M91.151,48.614L49.995,76.342L8.723,48.639L11.212,39.921L11.159,39.83L19.709,36.813L24.902,29.342L33.967,29.225L41.276,23.858L41.311,23.808L49.934,26.609L49.941,26.634L58.563,23.833L58.599,23.833L65.868,29.251L74.973,29.366L74.965,29.399L80.113,36.861L88.715,39.854L88.664,39.903L91.151,48.614Z" style="fill:rgb(255,252,239);"/>
            <g id="New-Fan" serif:id="New Fan">
                <g id="Layer1">
                    <path d="M50.005,76.317L88.725,39.83L91.277,48.614L50.005,76.317Z" style="fill:rgb(242,236,211);"/>
                    <path d="M50.005,76.317L74.983,29.342L80.239,36.861L50.005,76.317Z" style="fill:rgb(242,236,211);"/>
                    <path d="M50.005,76.317L58.646,23.833L65.993,29.251L50.005,76.317Z" style="fill:rgb(242,236,211);"/>
                    <path d="M50.005,76.317L41.286,23.833L49.951,26.609L50.005,76.317Z" style="fill:rgb(242,236,211);"/>
                    <path d="M50.005,76.317L24.919,29.399L34.092,29.225L50.005,76.317Z" style="fill:rgb(242,236,211);"/>
                    <path d="M50.005,76.317L11.222,39.896L19.834,36.813L50.005,76.317Z" style="fill:rgb(242,236,211);"/>
                </g>
                <path d="M50.005,76.317L11.222,39.896L8.733,48.614L50.005,76.317Z" style="fill:rgb(255,252,239);"/>
                <path d="M50.005,76.317L24.919,29.399L19.834,36.813L50.005,76.317Z" style="fill:rgb(255,252,239);"/>
                <path d="M50.005,76.317L41.286,23.833L34.092,29.225L50.005,76.317Z" style="fill:rgb(255,252,239);"/>
                <path d="M50.005,76.317L58.646,23.833L49.951,26.609L50.005,76.317Z" style="fill:rgb(255,252,239);"/>
                <path d="M50.005,76.317L74.983,29.342L65.993,29.251L50.005,76.317Z" style="fill:rgb(255,252,239);"/>
                <path d="M50.005,76.317L88.725,39.83L80.239,36.861L50.005,76.317Z" style="fill:rgb(255,252,239);"/>
            </g>
            <path d="M50.008,79.55L50.001,79.55L8.733,48.614L50.005,76.317L91.277,48.614L50.008,79.55Z"/>
            <path d="M50.005,76.317L30.457,63.21C34.681,56.922 41.86,52.784 50.005,52.784C58.146,52.784 65.321,56.917 69.546,63.2L50.005,76.317Z" style="stroke:black;stroke-width:0.06px;stroke-linecap:round;"/>
        </g>
    </g>
</svg>
