<?xml version="1.0" encoding="UTF-8" standalone="no"?>
<!DOCTYPE svg PUBLIC "-//W3C//DTD SVG 1.1//EN" "http://www.w3.org/Graphics/SVG/1.1/DTD/svg11.dtd">
<svg width="100%" height="100%" viewBox="0 0 100 100" version="1.1" xmlns="http://www.w3.org/2000/svg" xmlns:xlink="http://www.w3.org/1999/xlink" xml:space="preserve" xmlns:serif="http://www.serif.com/" style="fill-rule:evenodd;clip-rule:evenodd;stroke-linecap:round;stroke-linejoin:round;stroke-miterlimit:1.41421;">
    <g id="Darker-Icon" serif:id="Darker Icon" transform="matrix(1.00146,0,0,1.00248,0,-0.0982427)">
        <g>
            <clipPath id="_clip1">
                <path d="M99.854,68.6C99.854,69.795 99.854,70.987 99.845,72.18C99.838,73.185 99.827,74.191 99.802,75.194C99.774,77.392 99.58,79.586 99.223,81.755C98.853,83.927 98.16,86.029 97.167,87.994C95.156,91.943 91.944,95.155 87.996,97.166C86.031,98.157 83.929,98.85 81.76,99.22C79.589,99.579 77.395,99.772 75.197,99.798C74.193,99.824 73.188,99.839 72.183,99.844C70.988,99.851 69.796,99.851 68.604,99.851L31.201,99.851C30.009,99.851 28.816,99.851 27.622,99.844C26.617,99.84 25.612,99.825 24.608,99.8C22.408,99.773 20.214,99.579 18.044,99.22C15.875,98.852 13.772,98.156 11.809,97.166C7.861,95.155 4.65,91.944 2.638,87.997C1.646,86.03 0.952,83.926 0.581,81.755C0.224,79.586 0.031,77.394 0.003,75.196C-0.023,74.191 -0.036,73.185 -0.04,72.18C-0.049,70.985 -0.049,69.795 -0.049,68.6L-0.049,31.202C-0.049,30.008 -0.049,28.813 -0.04,27.619C-0.036,26.615 -0.023,25.61 0.003,24.606C0.031,22.409 0.224,20.216 0.581,18.048C0.952,15.876 1.645,13.773 2.638,11.806C4.649,7.857 7.861,4.646 11.809,2.634C13.773,1.644 15.874,0.951 18.042,0.58C20.214,0.224 22.408,0.03 24.605,0.002C25.611,-0.024 26.616,-0.037 27.62,-0.041C28.814,-0.048 30.009,-0.048 31.199,-0.048L68.602,-0.048C69.796,-0.048 70.991,-0.048 72.183,-0.041C73.188,-0.038 74.193,-0.023 75.197,0.002C77.395,0.03 79.589,0.224 81.758,0.58C83.93,0.951 86.03,1.644 87.996,2.634C91.945,4.645 95.158,7.857 97.169,11.806C98.161,13.772 98.854,15.875 99.223,18.045C99.58,20.215 99.774,22.408 99.802,24.606C99.827,25.612 99.841,26.617 99.845,27.621C99.854,28.815 99.854,30.008 99.854,31.2L99.854,68.6Z"/>
            </clipPath>
            <g clip-path="url(#_clip1)">
                <rect x="0" y="0.098" width="100" height="99.801" style="fill:url(#_Linear2);"/>
                <g id="Glyph">
                    <path d="M91.111,48.615L49.995,76.316L8.763,48.64L11.25,39.931L11.197,39.84L19.738,36.826L24.926,29.362L33.982,29.246L41.284,23.883L41.32,23.834L49.934,26.632L49.941,26.657L58.555,23.859L58.59,23.859L65.852,29.271L74.949,29.387L74.941,29.419L80.084,36.874L88.677,39.864L88.626,39.912L91.111,48.615Z" style="fill:rgb(255,252,239);"/>
                    <path d="M50.005,76.291L88.687,39.839L91.237,48.615L50.005,76.291Z" style="fill:rgb(242,236,211);"/>
                    <path d="M50.005,76.291L74.959,29.362L80.209,36.874L50.005,76.291Z" style="fill:rgb(242,236,211);"/>
                    <path d="M50.005,76.291L58.637,23.859L65.977,29.271L50.005,76.291Z" style="fill:rgb(242,236,211);"/>
                    <path d="M50.005,76.291L41.294,23.859L49.951,26.632L50.005,76.291Z" style="fill:rgb(242,236,211);"/>
                    <path d="M50.005,76.291L24.944,29.419L34.108,29.246L50.005,76.291Z" style="fill:rgb(242,236,211);"/>
                    <path d="M50.005,76.291L11.26,39.906L19.864,36.826L50.005,76.291Z" style="fill:rgb(242,236,211);"/>
                    <path d="M50.005,76.291L11.26,39.906L8.773,48.615L50.005,76.291Z" style="fill:rgb(255,252,239);"/>
                    <path d="M50.005,76.291L24.944,29.419L19.864,36.826L50.005,76.291Z" style="fill:rgb(255,252,239);"/>
                    <path d="M50.005,76.291L41.294,23.859L34.108,29.246L50.005,76.291Z" style="fill:rgb(255,252,239);"/>
                    <path d="M50.005,76.291L58.637,23.859L49.951,26.632L50.005,76.291Z" style="fill:rgb(255,252,239);"/>
                    <path d="M50.005,76.291L74.958,29.362L65.978,29.271L50.005,76.291Z" style="fill:rgb(255,252,239);"/>
                    <path d="M50.005,76.291L88.687,39.84L80.209,36.874L50.005,76.291Z" style="fill:rgb(255,252,239);"/>
                    <path d="M50.008,79.521L50.001,79.521L8.764,48.64L50.005,76.291L91.236,48.615L50.008,79.521Z"/>
                    <path d="M50.005,76.291L30.476,63.197C34.696,56.915 41.868,52.781 50.005,52.781C58.138,52.781 65.306,56.911 69.527,63.187L50.005,76.291Z" style="stroke:black;stroke-width:0.06px;"/>
                </g>
            </g>
        </g>
    </g>
    <defs>
        <linearGradient id="_Linear2" x1="0" y1="0" x2="1" y2="0" gradientUnits="userSpaceOnUse" gradientTransform="matrix(6.11108e-15,-99.8015,99.8015,6.11108e-15,49.9512,99.899)"><stop offset="0" style="stop-color:rgb(219,41,77);stop-opacity:1"/><stop offset="1" style="stop-color:rgb(247,49,85);stop-opacity:1"/></linearGradient>
    </defs>
</svg>
