<?xml version="1.0" standalone="no"?><!DOCTYPE svg PUBLIC "-//W3C//DTD SVG 1.1//EN" "http://www.w3.org/Graphics/SVG/1.1/DTD/svg11.dtd"><svg width="100" height="100" viewBox="0 0 100 100" version="1.1" xmlns="http://www.w3.org/2000/svg" xmlns:xlink="http://www.w3.org/1999/xlink" xml:space="preserve" style="fill-rule:evenodd;clip-rule:evenodd;stroke-linejoin:round;stroke-miterlimit:1.41421;"><g id="Icon"><clipPath id="_clip1"><path d="M20,0l60,0c11.046,0 20,8.954 20,20l0,60c0,11.046 -8.954,20 -20,20l-60,0c-11.046,0 -20,-8.954 -20,-20l0,-60c0,-11.046 8.954,-20 20,-20Z" clip-rule="nonzero"/></clipPath><g clip-path="url(#_clip1)"><rect id="Background" x="0" y="0" width="100" height="100" style="fill:url(#_Linear2);fill-rule:nonzero;stroke-width:0.1px;stroke:#ff375a;"/><g id="Fan Background"><path d="M91.151,48.614l-41.156,27.728l-41.272,-27.703l2.489,-8.718l-0.053,-0.091l8.55,-3.017l5.193,-7.471l9.065,-0.117l7.309,-5.367l0.035,-0.05l8.623,2.801l0.007,0.025l8.622,-2.801l0.036,0l7.269,5.418l9.105,0.115l-0.008,0.033l5.148,7.462l8.602,2.993l-0.051,0.049l2.487,8.711Z" style="fill:#fffcef;"/></g><g id="New Fan"><g id="Layer1"><path d="M50.005,76.317l38.72,-36.487l2.552,8.784l-41.272,27.703Z" style="fill:#f2ecd3;"/><path d="M50.005,76.317l24.978,-46.975l5.256,7.519l-30.234,39.456Z" style="fill:#f2ecd3;"/><path d="M50.005,76.317l8.641,-52.484l7.347,5.418l-15.988,47.066Z" style="fill:#f2ecd3;"/><path d="M50.005,76.317l-8.719,-52.484l8.665,2.776l0.054,49.708Z" style="fill:#f2ecd3;"/><path d="M50.005,76.317l-25.086,-46.918l9.173,-0.174l15.913,47.092Z" style="fill:#f2ecd3;"/><path d="M50.005,76.317l-38.783,-36.421l8.612,-3.083l30.171,39.504Z" style="fill:#f2ecd3;"/></g><path d="M50.005,76.317l-38.783,-36.421l-2.489,8.718l41.272,27.703Z" style="fill:#fffcef;"/><path d="M50.005,76.317l-25.086,-46.918l-5.085,7.414l30.171,39.504Z" style="fill:#fffcef;"/><path d="M50.005,76.317l-8.719,-52.484l-7.194,5.392l15.913,47.092Z" style="fill:#fffcef;"/><path d="M50.005,76.317l8.641,-52.484l-8.695,2.776l0.054,49.708Z" style="fill:#fffcef;"/><path d="M50.005,76.317l24.978,-46.975l-8.99,-0.091l-15.988,47.066Z" style="fill:#fffcef;"/><path d="M50.005,76.317l38.72,-36.487l-8.486,-2.969l-30.234,39.456Z" style="fill:#fffcef;"/></g><path d="M50.008,79.55l-0.007,0l-41.268,-30.936l41.272,27.703l41.272,-27.703l-41.269,30.936Z" style="fill:#000;"/><path d="M50.005,76.317l-19.548,-13.107c4.224,-6.288 11.403,-10.426 19.548,-10.426c8.141,0 15.316,4.133 19.541,10.416l-19.541,13.117Z" style="fill:#000;stroke-width:0.06px;stroke-linecap:round;stroke:#000;"/></g></g><defs><linearGradient id="_Linear2" x1="0" y1="0" x2="1" y2="0" gradientUnits="userSpaceOnUse" gradientTransform="matrix(0.00346022,78.3824,-78.3824,0.00346022,50.0015,21.6176)"><stop offset="0%" style="stop-color:#ff375b;stop-opacity:1"/><stop offset="100%" style="stop-color:#a80521;stop-opacity:1"/></linearGradient></defs></svg>
