<?xml version="1.0" encoding="UTF-8"?>
<!DOCTYPE svg PUBLIC "-//W3C//DTD SVG 1.1//EN" "http://www.w3.org/Graphics/SVG/1.1/DTD/svg11.dtd">
<svg version="1.1" xmlns="http://www.w3.org/2000/svg" xmlns:xlink="http://www.w3.org/1999/xlink" x="0" y="0" width="100" height="100" viewBox="0, 0, 100, 100">
  <g id="Layer_1">
    <path d="M20,0 L80,0 C91.046,0 100,8.954 100,20 L100,80 C100,91.046 91.046,100 80,100 L20,100 C8.954,100 0,91.046 0,80 L0,20 C0,8.954 8.954,0 20,0 z" fill="#3F729A"/>
    <path d="M74.83,18.15 L25.17,18.15 C21.302,18.15 18.167,21.288 18.167,25.158 L18.167,74.843 C18.167,78.713 21.302,81.85 25.17,81.85 L74.83,81.85 C78.698,81.85 81.833,78.713 81.833,74.843 L81.833,25.158 C81.832,21.288 78.697,18.15 74.83,18.15 z M49.965,37.77 C56.696,37.77 62.154,43.23 62.154,49.965 C62.154,56.7 56.696,62.16 49.965,62.16 C43.234,62.16 37.776,56.7 37.776,49.965 C37.776,43.23 43.233,37.77 49.965,37.77 z M74.383,71.85 C74.383,73.257 73.244,74.397 71.837,74.397 L28.122,74.397 C26.715,74.397 25.576,73.256 25.576,71.85 L25.576,45.161 L31.106,45.161 C30.723,46.688 30.518,48.285 30.518,49.932 C30.518,60.73 39.267,69.483 50.059,69.483 C60.852,69.483 69.6,60.73 69.6,49.932 C69.6,48.285 69.395,46.688 69.012,45.161 L74.383,45.161 L74.383,71.85 L74.383,71.85 z M74.547,35.131 C74.547,36.538 73.407,37.678 72,37.678 L64.77,37.678 C63.363,37.678 62.224,36.537 62.224,35.131 L62.224,27.896 C62.224,26.489 63.364,25.349 64.77,25.349 L72,25.349 C73.407,25.349 74.547,26.49 74.547,27.896 L74.547,35.131 z" fill="#F7F7F7"/>
  </g>
</svg>
