<?xml version="1.0" encoding="UTF-8" standalone="no"?>
<!DOCTYPE svg PUBLIC "-//W3C//DTD SVG 1.1//EN" "http://www.w3.org/Graphics/SVG/1.1/DTD/svg11.dtd">
<svg width="100%" height="100%" viewBox="0 0 100 100" version="1.1" xmlns="http://www.w3.org/2000/svg" xmlns:xlink="http://www.w3.org/1999/xlink" xml:space="preserve" xmlns:serif="http://www.serif.com/" style="fill-rule:evenodd;clip-rule:evenodd;stroke-linecap:round;stroke-linejoin:round;stroke-miterlimit:1.5;">
    <g id="Kluz" transform="matrix(0.0976563,0,0,0.0976563,0,0)">
        <clipPath id="_clip1">
            <path d="M1022.5,702.464C1022.5,714.701 1022.5,726.907 1022.41,739.123C1022.34,749.414 1022.23,759.716 1021.97,769.987C1021.69,792.494 1019.7,814.961 1016.04,837.171C1012.25,859.412 1005.16,880.937 994.99,901.059C974.397,941.496 941.507,974.387 901.079,994.98C880.957,1005.13 859.433,1012.22 837.222,1016.01C814.991,1019.69 792.525,1021.67 770.017,1021.93C759.736,1022.2 749.445,1022.35 739.154,1022.4C726.917,1022.47 714.711,1022.47 702.505,1022.47L319.498,1022.47C307.292,1022.47 295.076,1022.47 282.849,1022.4C272.558,1022.36 262.267,1022.21 251.986,1021.95C229.458,1021.68 206.991,1019.69 184.771,1016.01C162.56,1012.24 141.025,1005.12 120.924,994.98C80.497,974.387 47.616,941.507 27.013,901.089C16.855,880.947 9.748,859.402 5.949,837.171C2.294,814.961 0.317,792.515 0.031,770.007C-0.236,759.716 -0.369,749.414 -0.41,739.123C-0.502,726.886 -0.502,714.701 -0.502,702.464L-0.502,319.508C-0.502,307.282 -0.502,295.045 -0.41,282.819C-0.369,272.538 -0.236,262.246 0.031,251.965C0.317,229.468 2.294,207.012 5.949,184.812C9.748,162.57 16.845,141.036 27.013,120.893C47.606,80.456 80.497,47.575 120.924,26.972C141.036,16.835 162.55,9.738 184.75,5.939C206.991,2.294 229.458,0.307 251.955,0.02C262.257,-0.246 272.548,-0.379 282.829,-0.42C295.055,-0.492 307.292,-0.492 319.478,-0.492L702.484,-0.492C714.711,-0.492 726.948,-0.492 739.154,-0.42C749.445,-0.389 759.736,-0.236 770.017,0.02C792.525,0.307 814.991,2.294 837.202,5.939C859.443,9.738 880.947,16.835 901.079,26.972C941.517,47.565 974.418,80.456 995.011,120.893C1005.17,141.025 1012.26,162.56 1016.04,184.781C1019.7,207.002 1021.69,229.458 1021.97,251.965C1022.23,262.267 1022.37,272.558 1022.41,282.839C1022.5,295.066 1022.5,307.282 1022.5,319.488L1022.5,702.464Z"/>
        </clipPath>
        <g clip-path="url(#_clip1)">
            <rect x="0" y="0" width="1024" height="1024"/>
            <g transform="matrix(0.939833,0,0,0.939833,30.8056,30.5642)">
                <g transform="matrix(1,0,0,1,0,-29.7204)">
                    <path d="M512,142.914L512,940.27C501.146,951.337 308.07,840.42 243.914,781.498C229.312,768.087 221.732,758.372 221.732,758.372L237.742,745.327C209.684,708.979 150.723,666.567 63.25,652.075L189.445,619.53C157.577,595.212 119.151,563.338 76.624,560.188C79.547,558.537 82.553,556.63 85.623,554.483C93.251,549.594 100.802,544.616 108.269,539.544L108.27,539.543C191.575,482.961 264.993,414.492 322.987,327.461L393.668,421.967L497.907,394.225C501.213,389.723 499.892,383.92 497.052,380.175C502.222,377.174 507.207,373.983 512,370.588L512,142.914ZM108.873,535.718C107.222,537.027 105.567,538.331 103.908,539.63L103.812,539.705C105.538,538.122 107.275,536.481 109.021,534.783L108.873,535.718Z" style="fill:white;"/>
                </g>
                <path d="M512,800.95C458.507,797.95 431.75,761.85 431.75,737.093C431.75,712.335 481.507,692.235 512,692.235L512,800.95Z"/>
                <g transform="matrix(-0.730853,-0.0846071,-0.0651836,0.563069,1589.42,277.79)">
                    <path d="M2055,45C2077.4,110.889 2034.65,334.63 1901,434C1726.12,515.978 1771.59,208.497 1811.63,130.558C1864.24,28.148 2042.38,7.882 2055,45Z" style="fill:white;stroke:black;stroke-width:1.62px;"/>
                </g>
                <g transform="matrix(-0.876465,0,0,0.876465,933.58,77.721)">
                    <path d="M481,300.236L513.7,310.208C496.953,405.13 491.317,482.737 520.926,497.597C518.008,494.874 635.69,422.47 738.806,455.303C802.038,475.438 844.34,492.991 977.741,516.56C900.619,544.887 867.695,579.618 867.695,579.618C867.695,579.618 912.626,595.94 993,600.484C855.596,605.382 769.486,662.843 703.716,719.377C656.557,691.537 596.111,661.192 553.034,599.213C510.583,626.168 512.516,695.693 547.4,720.259C535.3,712.613 495.056,720.198 481,716.625L481,300.236Z"/>
                </g>
                <g transform="matrix(-0.741727,0,0,0.741727,1376.8,-70.0038)">
                    <path d="M1339,910.5C1315.65,888.359 1330.99,758.132 1457,790C1508.45,898.742 1371.49,941.298 1339,910.5Z" style="fill:white;stroke:black;stroke-width:1.43px;"/>
                </g>
            </g>
            <g transform="matrix(-0.939833,0,0,0.939833,993.194,30.5642)">
                <g transform="matrix(1,0,0,1,0,-29.7204)">
                    <path d="M512,142.914L512,940.27C501.146,951.337 308.07,840.42 243.914,781.498C229.312,768.087 221.732,758.372 221.732,758.372L237.742,745.327C209.684,708.979 150.723,666.567 63.25,652.075L189.445,619.53C157.577,595.212 119.151,563.338 76.624,560.188C79.547,558.537 82.553,556.63 85.623,554.483C93.251,549.594 100.802,544.616 108.269,539.544L108.27,539.543C191.575,482.961 264.993,414.492 322.987,327.461L393.668,421.967L497.907,394.225C501.213,389.723 499.892,383.92 497.052,380.175C502.222,377.174 507.207,373.983 512,370.588L512,142.914ZM108.873,535.718C107.222,537.027 105.567,538.331 103.908,539.63L103.812,539.705C105.538,538.122 107.275,536.481 109.021,534.783L108.873,535.718Z" style="fill:white;"/>
                </g>
                <path d="M512,800.95C458.507,797.95 431.75,761.85 431.75,737.093C431.75,712.335 481.507,692.235 512,692.235L512,800.95Z"/>
                <g transform="matrix(-0.730853,-0.0846071,-0.0651836,0.563069,1589.42,277.79)">
                    <path d="M2055,45C2077.4,110.889 2034.65,334.63 1901,434C1726.12,515.978 1771.59,208.497 1811.63,130.558C1864.24,28.148 2042.38,7.882 2055,45Z" style="fill:white;stroke:black;stroke-width:1.62px;"/>
                </g>
                <g transform="matrix(-0.876465,0,0,0.876465,933.58,77.721)">
                    <path d="M481,300.236L513.7,310.208C496.953,405.13 491.317,482.737 520.926,497.597C518.008,494.874 635.69,422.47 738.806,455.303C802.038,475.438 844.34,492.991 977.741,516.56C900.619,544.887 867.695,579.618 867.695,579.618C867.695,579.618 912.626,595.94 993,600.484C855.596,605.382 769.486,662.843 703.716,719.377C656.557,691.537 596.111,661.192 553.034,599.213C510.583,626.168 512.516,695.693 547.4,720.259C535.3,712.613 495.056,720.198 481,716.625L481,300.236Z"/>
                </g>
                <g transform="matrix(-0.741727,0,0,0.741727,1376.8,-70.0038)">
                    <path d="M1339,910.5C1315.65,888.359 1330.99,758.132 1457,790C1508.45,898.742 1371.49,941.298 1339,910.5Z" style="fill:white;stroke:black;stroke-width:1.43px;"/>
                </g>
            </g>
        </g>
    </g>
</svg>
