<?xml version="1.0" encoding="UTF-8"?>
<!DOCTYPE svg PUBLIC "-//W3C//DTD SVG 1.1//EN" "http://www.w3.org/Graphics/SVG/1.1/DTD/svg11.dtd">
<svg version="1.1" xmlns="http://www.w3.org/2000/svg" xmlns:xlink="http://www.w3.org/1999/xlink" x="0" y="0" width="100" height="100" viewBox="0, 0, 100, 100">
  <g id="Layer_1">
    <path d="M20,0 L80,0 C91.046,0 100,8.954 100,20 L100,80 C100,91.046 91.046,100 80,100 L20,100 C8.954,100 0,91.046 0,80 L0,20 C0,8.954 8.954,0 20,0 z" fill="#00ACED"/>
    <path d="M87.967,26.312 C85.173,27.558 82.171,28.4 79.02,28.779 C82.236,26.84 84.706,23.769 85.87,20.11 C82.86,21.906 79.527,23.209 75.977,23.912 C73.136,20.867 69.087,18.964 64.606,18.964 C56.002,18.964 49.027,25.979 49.027,34.633 C49.027,35.861 49.164,37.056 49.43,38.204 C36.482,37.549 25.003,31.312 17.319,21.831 C15.979,24.146 15.21,26.838 15.21,29.71 C15.21,35.147 17.961,39.943 22.141,42.753 C19.587,42.672 17.185,41.967 15.086,40.793 C15.084,40.859 15.084,40.925 15.084,40.991 C15.084,48.584 20.454,54.916 27.581,56.357 C26.273,56.715 24.898,56.907 23.477,56.907 C22.473,56.907 21.497,56.808 20.546,56.625 C22.529,62.85 28.282,67.381 35.098,67.508 C29.767,71.71 23.049,74.215 15.75,74.215 C14.493,74.215 13.253,74.141 12.034,73.997 C18.929,78.443 27.118,81.038 35.914,81.038 C64.569,81.038 80.239,57.16 80.239,36.452 C80.239,35.773 80.223,35.098 80.193,34.424 C83.237,32.214 85.878,29.453 87.967,26.312 z" fill="#F7F7F7"/>
  </g>
  <g id="Layer_1" display="none">
    <path d="M20,0 L80,0 C91.046,0 100,8.954 100,20 L100,80 C100,91.046 91.046,100 80,100 L20,100 C8.954,100 0,91.046 0,80 L0,20 C0,8.954 8.954,0 20,0 z" fill="#488300"/>
    <path d="M74.83,18.15 L25.17,18.15 C21.302,18.15 18.167,21.288 18.167,25.158 L18.167,74.843 C18.167,78.713 21.302,81.85 25.17,81.85 L74.83,81.85 C78.698,81.85 81.833,78.713 81.833,74.843 L81.833,25.158 C81.832,21.288 78.697,18.15 74.83,18.15 z M49.965,37.77 C56.696,37.77 62.154,43.23 62.154,49.965 C62.154,56.7 56.696,62.16 49.965,62.16 C43.234,62.16 37.776,56.7 37.776,49.965 C37.776,43.23 43.233,37.77 49.965,37.77 z M74.383,71.85 C74.383,73.257 73.244,74.397 71.837,74.397 L28.122,74.397 C26.715,74.397 25.576,73.256 25.576,71.85 L25.576,45.161 L31.106,45.161 C30.723,46.688 30.518,48.285 30.518,49.932 C30.518,60.73 39.267,69.483 50.059,69.483 C60.852,69.483 69.6,60.73 69.6,49.932 C69.6,48.285 69.395,46.688 69.012,45.161 L74.383,45.161 L74.383,71.85 L74.383,71.85 z M74.547,35.131 C74.547,36.538 73.407,37.678 72,37.678 L64.77,37.678 C63.363,37.678 62.224,36.537 62.224,35.131 L62.224,27.896 C62.224,26.489 63.364,25.349 64.77,25.349 L72,25.349 C73.407,25.349 74.547,26.49 74.547,27.896 L74.547,35.131 z" fill="#F7F7F7"/>
  </g>
</svg>
